<?xml version="1.0" encoding="utf-8"?>
<!-- Generator: Adobe Illustrator 24.0.0, SVG Export Plug-In . SVG Version: 6.00 Build 0)  -->
<svg version="1.1" id="Layer_1" xmlns="http://www.w3.org/2000/svg" xmlns:xlink="http://www.w3.org/1999/xlink" x="0px" y="0px"
	 viewBox="0 0 176.93 30.03" style="enable-background:new 0 0 176.93 30.03;" xml:space="preserve">
<style type="text/css">
	.st0{clip-path:url(#SVGID_2_);fill:#120D30;}
	.st1{clip-path:url(#SVGID_2_);fill:#0569FA;}
</style>
<g>
	<defs>
		<rect id="SVGID_1_" y="0" width="176.93" height="30.03"/>
	</defs>
	<clipPath id="SVGID_2_">
		<use xlink:href="#SVGID_1_"  style="overflow:visible;"/>
	</clipPath>
	<path class="st0" d="M24.76,4.93h4.77l3.19,9.37c0.56,1.78,1.14,3.63,1.7,5.44h0.16c0.56-1.81,1.14-3.66,1.7-5.44l3.19-9.37h4.54
		L37.2,22.99h-5.44L24.76,4.93z"/>
	<path class="st0" d="M56.94,18.15v-4.06c-5.44,0.62-7.26,1.9-7.26,3.72c0,1.6,1.21,2.29,2.89,2.29
		C54.21,20.1,55.45,19.38,56.94,18.15 M45.14,18.13c0-3.87,3.56-5.88,11.8-6.68C56.87,9.52,56,7.9,53.29,7.9
		c-1.99,0-3.87,0.81-5.64,1.78l-1.73-2.82c2.21-1.25,5.05-2.37,8.24-2.37c5.02,0,7.48,2.78,7.48,7.81v10.69h-3.86l-0.36-2H57.3
		c-1.8,1.38-3.86,2.44-6.23,2.44C47.56,23.43,45.14,21.28,45.14,18.13"/>
	<path class="st0" d="M66,16.9v-8.6h-2.86V5.12l3.1-0.19L66.8,0h3.9v4.93h5.12v3.37h-5.12v8.6c0,2.12,0.92,3.17,2.84,3.17
		c0.69,0,1.5-0.2,2.09-0.41l0.8,3.12c-1.09,0.32-2.49,0.66-4.1,0.66C67.72,23.43,66,20.8,66,16.9"/>
	<path class="st0" d="M99.66,18.34V0h4.71v18.56c0,1.04,0.52,1.41,1.01,1.41c0.21,0,0.38,0,0.74-0.07l0.59,3.16
		c-0.57,0.21-1.36,0.37-2.48,0.37C100.88,23.43,99.66,21.49,99.66,18.34"/>
	<path class="st0" d="M122.23,13.97c0-3.62-1.77-6.03-4.71-6.03c-2.94,0-4.71,2.41-4.71,6.03s1.76,6,4.71,6
		C120.47,19.97,122.23,17.59,122.23,13.97 M107.98,13.97c0-6.01,4.54-9.49,9.54-9.49c5,0,9.54,3.47,9.54,9.49
		c0,5.99-4.54,9.46-9.54,9.46C112.53,23.43,107.98,19.96,107.98,13.97"/>
	<path class="st0" d="M143.3,13.72c0-3.6-1.31-5.74-4.36-5.74c-1.45,0-2.86,0.66-4.38,2.03v8.41c1.4,1.1,2.86,1.5,4.02,1.5
		C141.26,19.93,143.3,17.81,143.3,13.72 M134.1,21.09h-0.13l-0.41,1.9h-3.71V0h4.71v3.74l-0.13,3c1.68-1.32,3.73-2.25,5.79-2.25
		c5.02,0,7.92,3.62,7.92,9.17c0,6.2-4.1,9.77-8.56,9.77C137.74,23.43,135.78,22.59,134.1,21.09"/>
	<path class="st0" d="M162.01,18.15v-4.06c-5.44,0.62-7.26,1.9-7.26,3.72c0,1.6,1.21,2.29,2.89,2.29
		C159.28,20.1,160.52,19.38,162.01,18.15 M150.21,18.13c0-3.87,3.56-5.88,11.8-6.68c-0.07-1.94-0.93-3.56-3.64-3.56
		c-1.99,0-3.87,0.81-5.64,1.78l-1.73-2.82c2.21-1.25,5.05-2.37,8.24-2.37c5.02,0,7.48,2.78,7.48,7.81v10.69h-3.86l-0.36-2h-0.13
		c-1.8,1.38-3.86,2.44-6.23,2.44C152.63,23.43,150.21,21.28,150.21,18.13"/>
	<path class="st0" d="M169.89,18.34V0h4.71v18.56c0,1.04,0.52,1.41,1.01,1.41c0.21,0,0.38,0,0.74-0.07l0.59,3.16
		c-0.57,0.21-1.36,0.37-2.48,0.37C171.12,23.43,169.89,21.49,169.89,18.34"/>
	<path class="st0" d="M87.05,19.99c-2.94,0-4.71-2.38-4.71-6c0-3.62,1.76-6.03,4.71-6.03c2.94,0,4.71,2.41,4.71,6.03
		C91.76,17.6,90,19.99,87.05,19.99 M96.6,21.62L96.6,21.62l-0.01-7.61c0-0.01,0-0.02,0-0.03c0-0.01,0-0.02,0-0.03l-0.01-9.47h-4.16
		l-0.7,1.07c0,0-0.02,0.05-0.03,0.05l-0.34,0.53c0,0-1.17-1.62-4.47-1.63c-4.93,0.08-9.37,3.53-9.37,9.48
		c0,5.99,4.54,9.46,9.54,9.46c1.64,0,3.23-0.39,4.63-1.1c-0.12,1.13-0.51,2-1.16,2.62c-0.81,0.76-2.06,1.15-3.75,1.15
		c-1.09,0-2.18-0.17-3.26-0.52c-1.09-0.35-1.99-0.81-2.7-1.4l-1.94,3.51c0.96,0.75,2.18,1.33,3.64,1.73c1.46,0.4,3.01,0.6,4.65,0.6
		c3.1,0,5.45-0.75,7.06-2.26C95.69,26.39,96.48,24.34,96.6,21.62"/>
	<path class="st1" d="M9.98,12.37L6.73,6.73C5.73,5.01,3.53,4.42,1.8,5.41c-1.72,1-2.31,3.2-1.32,4.92l6.27,10.85
		c0.67,1.16,1.88,1.8,3.12,1.8c0,0,0,0,0,0c0,0,0,0,0,0c1.25,0,2.46-0.65,3.12-1.8l3.1-5.38C13.52,15.79,11.26,14.42,9.98,12.37"/>
	<path class="st1" d="M19.75,8.53c0,1.99-1.61,3.61-3.61,3.61c-1.99,0-3.6-1.61-3.6-3.61c0-1.99,1.61-3.6,3.6-3.6
		C18.14,4.93,19.75,6.54,19.75,8.53"/>
</g>
</svg>
